<svg width="30" height="29" viewBox="0 0 30 29" fill="none" xmlns="http://www.w3.org/2000/svg">
<path d="M0 15.2426V26C0 27.6569 1.34315 29 3 29H8.25C9.90685 29 11.25 27.6569 11.25 26V17C11.25 15.3431 12.5931 14 14.25 14H15H16C17.6569 14 19 15.3431 19 17V26C19 27.6569 20.3431 29 22 29H27C28.6569 29 30 27.6569 30 26V15.2426C30 14.447 29.6839 13.6839 29.1213 13.1213L17.1213 1.12132C15.9497 -0.0502524 14.0503 -0.0502513 12.8787 1.12132L0.87868 13.1213C0.316071 13.6839 0 14.447 0 15.2426Z" fill="#5AC893"/>
</svg>
