<svg width="30" height="29" viewBox="0 0 30 29" fill="none" xmlns="http://www.w3.org/2000/svg">
<path fill-rule="evenodd" clip-rule="evenodd" d="M20 0H10H2C0.89543 0 0 0.895431 0 2V10V20V25.5V26.9068C0 28.3581 1.49724 29.3262 2.82073 28.7307L9.60854 25.6762V25.6762C9.86657 25.56 10.1463 25.5 10.4293 25.5V25.5H20H28C29.1046 25.5 30 24.6046 30 23.5V20V10V2C30 0.895431 29.1046 0 28 0H20ZM25 9.5C25 8.39543 24.1046 7.5 23 7.5H7.0575C5.95294 7.5 5.0575 8.39543 5.0575 9.5V10C5.0575 11.1046 5.95294 12 7.0575 12H23C24.1046 12 25 11.1046 25 10V9.5ZM15.0288 16.5C15.0288 15.3954 14.1333 14.5 13.0288 14.5H7.0575C5.95294 14.5 5.0575 15.3954 5.0575 16.5V17C5.0575 18.1046 5.95294 19 7.0575 19H13.0288C14.1333 19 15.0288 18.1046 15.0288 17V16.5Z" fill="#5AC893"/>
</svg>
