<svg width="30" height="30" viewBox="0 0 30 30" fill="none" xmlns="http://www.w3.org/2000/svg">
<path fill-rule="evenodd" clip-rule="evenodd" d="M10 0H20C25.5228 0 30 4.47715 30 10V20C30 25.5228 25.5228 30 20 30H10C4.47715 30 0 25.5228 0 20V10C0 4.47715 4.47715 0 10 0ZM19 4H11C7.13401 4 4 7.13401 4 11V19C4 22.866 7.13401 26 11 26H19C22.866 26 26 22.866 26 19V11C26 7.13401 22.866 4 19 4Z" fill="#5AC893"/>
<path d="M13 8C13 6.89543 13.8954 6 15 6V6C16.1046 6 17 6.89543 17 8V12C17 12.5523 17.4477 13 18 13H22C23.1046 13 24 13.8954 24 15V15C24 16.1046 23.1046 17 22 17H18C17.4477 17 17 17.4477 17 18V22C17 23.1046 16.1046 24 15 24V24C13.8954 24 13 23.1046 13 22V18C13 17.4477 12.5523 17 12 17H8C6.89543 17 6 16.1046 6 15V15C6 13.8954 6.89543 13 8 13H12C12.5523 13 13 12.5523 13 12V8Z" fill="#5AC893"/>
</svg>
