<svg width="30" height="30" viewBox="0 0 30 30" fill="none" xmlns="http://www.w3.org/2000/svg">
<path d="M20.4142 20.4142C21.1953 19.6332 22.4616 19.6332 23.2426 20.4142L28.8995 26.0711C29.6805 26.8521 29.6805 28.1184 28.8995 28.8995V28.8995C28.1184 29.6805 26.8521 29.6805 26.0711 28.8995L20.4142 23.2426C19.6332 22.4616 19.6332 21.1953 20.4142 20.4142V20.4142Z" fill="#5AC893"/>
<path fill-rule="evenodd" clip-rule="evenodd" d="M11 22C17.0751 22 22 17.0751 22 11C22 4.92487 17.0751 0 11 0C4.92487 0 0 4.92487 0 11C0 17.0751 4.92487 22 11 22ZM11 18C14.866 18 18 14.866 18 11C18 7.13401 14.866 4 11 4C7.13401 4 4 7.13401 4 11C4 14.866 7.13401 18 11 18Z" fill="#5AC893"/>
</svg>
