<svg width="157" height="23" viewBox="0 0 157 23" fill="none" xmlns="http://www.w3.org/2000/svg">
<path d="M13.81 1.988C13.6513 2.03333 13.4926 2.13533 13.334 2.294C13.1753 2.45266 13.0506 2.55466 12.96 2.6L9.32197 3.382C9.25397 3.382 9.15197 3.40466 9.01597 3.45C8.87997 3.47266 8.7213 3.484 8.53997 3.484C8.3813 3.46133 8.19997 3.40466 7.99597 3.314C7.79197 3.22333 7.58797 3.05333 7.38397 2.804C7.11197 2.78133 6.87397 2.82666 6.66997 2.94C6.48864 3.03066 6.36397 3.16666 6.29597 3.348C6.25064 3.52933 6.29597 3.74466 6.43197 3.994C6.59064 4.24333 6.87397 4.49266 7.28197 4.742C7.34997 4.78733 7.34997 4.844 7.28197 4.912C7.23664 4.98 7.11197 5.20666 6.90797 5.592C6.79464 5.84133 6.69264 6.04533 6.60197 6.204C6.5113 6.36266 6.43197 6.51 6.36397 6.646C6.29597 6.782 6.22797 6.92933 6.15997 7.088C6.11464 7.224 6.0693 7.394 6.02397 7.598C6.0013 7.734 5.98997 7.96066 5.98997 8.278C5.98997 8.59533 6.01264 8.98066 6.05797 9.434C6.14864 9.95533 6.25064 10.3293 6.36397 10.556C6.4093 10.6693 6.4773 10.794 6.56797 10.93C6.3413 11.0887 6.15997 11.3947 6.02397 11.848C5.91064 12.2787 5.92197 12.8113 6.05797 13.446C6.12597 13.65 6.14864 14.0127 6.12597 14.534C6.12597 15.0553 6.18264 15.7127 6.29597 16.506C6.36397 16.914 6.3753 17.288 6.32997 17.628C6.28464 17.968 6.22797 18.2967 6.15997 18.614C6.09197 18.9087 6.02397 19.192 5.95597 19.464C5.88797 19.7133 5.8653 19.94 5.88797 20.144C5.6613 20.3027 5.6273 20.586 5.78597 20.994L5.00397 21.81H3.13397C2.92997 21.8553 2.7033 21.8893 2.45397 21.912C2.20464 21.912 1.93264 21.9233 1.63797 21.946C1.56997 21.946 1.50197 21.9573 1.43397 21.98C1.38864 21.98 1.3433 21.98 1.29797 21.98L0.787971 21.266C0.787971 20.994 0.776637 20.654 0.753971 20.246C0.753971 19.8153 0.742637 19.3053 0.719971 18.716C0.719971 17.764 0.810637 17.016 0.991971 16.472C1.19597 15.9053 1.28664 15.5653 1.26397 15.452C1.2413 15.316 1.21864 15.1573 1.19597 14.976C1.19597 14.7947 1.18464 14.6247 1.16197 14.466C1.1393 14.2847 1.09397 14.1373 1.02597 14.024C0.980637 13.888 0.912637 13.82 0.821971 13.82L0.889971 12.086C1.09397 11.474 1.1733 10.5787 1.12797 9.4C1.1053 8.856 1.11664 8.346 1.16197 7.87C1.22997 7.37133 1.33197 6.92933 1.46797 6.544V5.388C1.67197 5.456 1.66064 5.24066 1.43397 4.742C1.18464 4.198 1.21864 3.96 1.53597 4.028C1.5813 3.64266 1.59264 3.314 1.56997 3.042C1.56997 2.77 1.55864 2.40733 1.53597 1.954L2.18197 1.07C2.40864 1.09266 2.65797 1.07 2.92997 1.002C3.22464 0.911331 3.53064 0.899998 3.84797 0.967999C4.11997 1.01333 4.4373 1.036 4.79997 1.036C5.1853 1.036 5.54797 1.02466 5.88797 1.002C6.25064 0.979332 6.56797 0.967999 6.83997 0.967999C7.13464 0.945331 7.3273 0.945331 7.41797 0.967999C7.89397 1.036 8.25664 1.05866 8.50597 1.036C8.64197 1.036 8.80064 1.01333 8.98197 0.967999C9.00464 0.899998 9.10664 0.854665 9.28797 0.831998C9.49197 0.809331 9.59397 0.74133 9.59397 0.627997L11.294 0.967999C11.362 0.967999 11.464 0.933999 11.6 0.865998C11.736 0.797998 11.872 0.718664 12.008 0.627997C12.1666 0.53733 12.3253 0.412664 12.484 0.253998C12.8013 0.253998 13.1186 0.276664 13.436 0.321997C13.7533 0.344665 14.0026 0.378665 14.184 0.423998L14.252 0.763997C14.2293 0.854664 14.218 1.002 14.218 1.206C14.218 1.38733 14.2066 1.52333 14.184 1.614L13.81 1.988ZM16.768 10.148C16.768 10.216 16.7453 10.3293 16.7 10.488C16.6773 10.624 16.6433 10.7713 16.598 10.93C16.5526 11.0887 16.5073 11.236 16.462 11.372C16.4393 11.508 16.428 11.61 16.428 11.678C15.6346 11.746 15.1133 11.814 14.864 11.882C14.6373 11.9273 14.5013 11.95 14.456 11.95H12.178C11.6566 11.95 11.3053 11.9387 11.124 11.916C10.9653 11.8933 10.8406 11.9047 10.75 11.95L10.546 11.984L9.83197 12.426L8.77797 11.95C8.77797 11.882 8.70997 11.8253 8.57397 11.78C8.43797 11.712 8.2793 11.644 8.09797 11.576C7.9393 11.508 7.78064 11.44 7.62197 11.372C7.48597 11.2813 7.40664 11.1907 7.38397 11.1L9.15197 9.604C9.6053 9.604 9.8433 9.61533 9.86597 9.638L9.89997 9.604C9.89997 9.58133 9.96797 9.55866 10.104 9.536C10.24 9.49066 10.3986 9.45666 10.58 9.434L11.09 9.332C11.2486 9.30933 11.9853 9.34333 13.3 9.434C13.3226 9.434 13.4813 9.49066 13.776 9.604C13.8893 9.64933 14.1726 9.638 14.626 9.57C15.102 9.47933 15.6346 9.434 16.224 9.434L16.768 10.148Z" fill="#5AC893"/>
<path d="M35.3585 20.382L30.5985 20.96L29.6125 19.362C29.6125 19.0673 29.3859 19.0787 28.9325 19.396C28.8192 19.464 28.7059 19.5773 28.5925 19.736C28.4792 19.8947 28.3659 20.0533 28.2525 20.212C28.1845 20.3027 28.1165 20.3933 28.0485 20.484C27.9805 20.5747 27.9125 20.6767 27.8445 20.79C27.1419 21.3113 26.4165 21.6513 25.6685 21.81C24.9432 21.9687 24.3199 21.8667 23.7985 21.504C23.4132 21.4587 23.1525 21.368 23.0165 21.232C22.9485 21.1867 22.8579 21.1073 22.7445 20.994L20.5685 20.858L19.6505 20.416L18.8005 18.274L18.9705 17.56L18.2225 14.568L19.6505 12.188L20.8065 11.134C21.2372 10.9073 21.7359 10.726 22.3025 10.59C22.8692 10.454 23.4359 10.3633 24.0025 10.318C24.5692 10.25 25.1132 10.2387 25.6345 10.284C26.1559 10.3067 26.5865 10.3747 26.9265 10.488C26.9265 10.8507 27.0399 11.0887 27.2665 11.202C27.4932 11.3153 27.9352 11.44 28.5925 11.576C28.8192 11.1907 28.9325 10.726 28.9325 10.182C28.9325 9.61533 28.8305 9.026 28.6265 8.414L28.0825 6.68C27.9012 6.612 27.6179 6.49866 27.2325 6.34C26.8699 6.15866 26.5639 6.01133 26.3145 5.898L24.8525 6.136L23.3565 6.442L23.0165 5.898L23.3905 5.014L23.6285 4.47L24.1045 4.368L25.6685 4.096L27.0625 4.572L28.5925 4.334L31.5505 5.218L32.8085 7.122L33.2505 12.528L33.1485 14.228L33.8965 18.206L34.3385 18.41H35.3925L35.8345 19.6L35.3585 20.382ZM22.8805 14.84C22.7672 15.4293 22.7672 15.928 22.8805 16.336C23.0165 16.744 23.2319 17.084 23.5265 17.356L24.0365 18.41C24.4445 18.546 24.8299 18.648 25.1925 18.716C25.5552 18.784 25.9292 18.7953 26.3145 18.75C26.7225 18.682 27.1419 18.5573 27.5725 18.376C28.0259 18.172 28.5472 17.8773 29.1365 17.492L29.2045 15.758L28.5925 12.732C28.2752 12.6187 27.9919 12.562 27.7425 12.562C27.5159 12.562 27.2892 12.5847 27.0625 12.63C26.7905 12.698 26.4732 12.7547 26.1105 12.8C25.7479 12.8453 25.3739 12.902 24.9885 12.97C24.6259 13.0153 24.2859 13.0833 23.9685 13.174C23.6739 13.242 23.4585 13.344 23.3225 13.48L22.8805 14.84Z" fill="#5AC893"/>
<path d="M51.9699 7.768V9.026L51.7659 9.23L48.6719 8.584L45.9519 9.842L45.2039 11.576C44.5239 12.936 44.0253 14.1713 43.7079 15.282C43.3906 16.37 43.4246 17.2993 43.8099 18.07L44.7959 19.77L48.3659 19.158L49.8619 18.648H52.6499L52.9899 19.838L49.1819 20.926L43.8099 22.048L42.1779 20.994H39.3899L38.3359 19.838C38.0639 18.546 38.0979 17.2427 38.4379 15.928C38.7779 14.5907 39.2879 13.2307 39.9679 11.848L43.7759 9.094L44.7279 7.462L45.8159 7.054L46.5639 6.442L51.7319 7.088L51.9699 7.768Z" fill="#5AC893"/>
<path d="M70.2917 14.16C69.793 14.092 69.351 14.1827 68.9657 14.432C68.8297 14.5 68.6937 14.568 68.5577 14.636C68.4217 14.6813 68.2857 14.7267 68.1497 14.772C68.0817 14.7947 68.0137 14.8173 67.9457 14.84C67.8777 14.8627 67.821 14.8853 67.7757 14.908L63.0497 16.336C61.735 16.0413 61.2703 16.2567 61.6557 16.982C61.7237 17.1407 61.8143 17.3787 61.9277 17.696C62.041 18.0133 62.1317 18.24 62.1997 18.376C62.4943 18.4893 62.8003 18.6707 63.1177 18.92C63.435 19.1467 63.7297 19.2827 64.0017 19.328L64.6137 19.26C64.7723 19.26 64.9877 19.2487 65.2597 19.226C65.5543 19.2033 65.8377 19.1693 66.1097 19.124C66.4043 19.056 66.665 18.9767 66.8917 18.886C67.141 18.7953 67.311 18.682 67.4017 18.546C67.4697 18.4327 67.5717 18.3533 67.7077 18.308C67.8437 18.24 67.9797 18.1833 68.1157 18.138C68.2063 18.1153 68.2857 18.104 68.3537 18.104C68.4443 18.0813 68.5463 18.0587 68.6597 18.036L69.0337 19.362L68.6257 20.144C68.603 20.1893 68.5237 20.246 68.3877 20.314C68.2743 20.3593 68.1383 20.4273 67.9797 20.518C67.821 20.6087 67.6623 20.6993 67.5037 20.79C67.3677 20.858 67.2657 20.926 67.1977 20.994C67.1523 21.0393 67.0277 21.062 66.8237 21.062C66.6423 21.062 66.427 21.062 66.1777 21.062C65.951 21.062 65.713 21.0733 65.4637 21.096C65.2143 21.1187 65.0217 21.164 64.8857 21.232C64.5683 21.3907 64.319 21.4927 64.1377 21.538C63.979 21.5833 63.843 21.6173 63.7297 21.64C63.6163 21.6853 63.537 21.674 63.4917 21.606C63.4463 21.5833 63.367 21.572 63.2537 21.572C63.1857 21.572 63.095 21.572 62.9817 21.572C62.8683 21.572 62.755 21.5607 62.6417 21.538C62.347 21.5153 62.109 21.504 61.9277 21.504C61.7463 21.4813 61.633 21.47 61.5877 21.47L58.3237 19.872C58.2557 19.192 57.9383 18.852 57.3717 18.852C57.2583 18.852 57.1223 18.7613 56.9637 18.58C56.805 18.376 56.669 18.1607 56.5557 17.934C56.465 17.8207 56.3857 17.696 56.3177 17.56C56.2497 17.4013 56.1817 17.2313 56.1137 17.05L55.8077 13.174L56.1137 10.896C56.1363 10.8053 56.2043 10.692 56.3177 10.556C56.4537 10.3293 56.6237 9.98933 56.8277 9.536C56.9183 9.332 57.0997 9.13933 57.3717 8.958C57.6437 8.77666 57.927 8.618 58.2217 8.482C58.539 8.32333 58.8337 8.18733 59.1057 8.074C59.4003 7.938 59.6157 7.82466 59.7517 7.734C60.0237 7.77933 60.4203 7.48466 60.9417 6.85C61.0777 6.69133 61.2477 6.56666 61.4517 6.476C61.6557 6.36266 61.8597 6.272 62.0637 6.204C62.177 6.15866 62.3017 6.12466 62.4377 6.102C62.5737 6.07933 62.6983 6.05666 62.8117 6.034L66.7897 6.544C67.0163 6.58933 67.2543 6.65733 67.5037 6.748C67.685 6.83866 67.8663 6.952 68.0477 7.088C68.229 7.224 68.3763 7.38266 68.4897 7.564C68.6483 7.94933 68.875 8.26667 69.1697 8.516C69.4643 8.74267 69.7023 8.90133 69.8837 8.992L71.1417 11.236L70.8697 13.446L70.2917 14.16ZM65.2597 13.004L65.5317 12.8C65.5997 12.7547 65.6677 12.7093 65.7357 12.664C65.8037 12.596 65.8603 12.5507 65.9057 12.528C66.0643 12.4827 66.2457 12.392 66.4497 12.256C66.6537 12.12 66.733 11.95 66.6877 11.746C66.6877 11.3607 66.4837 10.93 66.0757 10.454C65.6677 9.978 65.135 9.638 64.4777 9.434C64.1603 9.32066 63.8543 9.264 63.5597 9.264C63.265 9.264 62.9817 9.28667 62.7097 9.332C62.4603 9.35467 62.2223 9.38866 61.9957 9.434C61.7917 9.47933 61.6217 9.502 61.4857 9.502C60.9643 9.38866 60.6697 9.62667 60.6017 10.216C60.2617 10.7373 60.0917 11.3153 60.0917 11.95C60.1143 12.562 60.1823 13.1513 60.2957 13.718C60.2957 14.0353 60.3523 14.296 60.4657 14.5C60.6017 14.704 60.7603 14.8287 60.9417 14.874C61.123 14.9193 61.3043 14.8853 61.4857 14.772C61.6897 14.636 61.8597 14.398 61.9957 14.058L65.2597 13.004Z" fill="#5AC893"/>
<path d="M85.5861 0.457997L86.1641 0.865998L86.4361 1.682C86.3681 1.70466 86.2888 1.73866 86.1981 1.784C86.0394 1.87467 85.8468 1.99933 85.6201 2.158C85.3934 2.294 85.1668 2.44133 84.9401 2.6C84.7361 2.736 84.5548 2.86066 84.3961 2.974C84.2601 3.06466 84.1808 3.11 84.1581 3.11L83.7501 3.314C83.5688 3.42733 83.3648 3.52933 83.1381 3.62L82.4921 3.96C82.3788 4.00533 82.2768 4.05066 82.1861 4.096C82.1181 4.14133 82.0388 4.18666 81.9481 4.232C81.8801 4.41333 81.7668 4.61733 81.6081 4.844C81.4494 5.07066 81.2794 5.29733 81.0981 5.524C80.9168 5.75067 80.7241 5.95467 80.5201 6.136C80.3388 6.31733 80.1801 6.46466 80.0441 6.578C80.0668 6.646 80.0668 6.72533 80.0441 6.816C80.0441 6.90666 80.0101 6.99733 79.9421 7.088C79.8741 7.20133 79.8061 7.45066 79.7381 7.836C79.6701 8.19867 79.6021 8.66333 79.5341 9.23C79.4661 9.41133 79.3188 9.55866 79.0921 9.672C78.8881 9.76266 78.7521 9.89866 78.6841 10.08C78.6388 10.284 78.5821 10.5107 78.5141 10.76C78.4688 11.0093 78.5368 11.1567 78.7181 11.202C79.0128 11.27 79.1828 11.3267 79.2281 11.372C79.1828 11.6893 79.1374 11.9613 79.0921 12.188C79.0694 12.392 79.0354 12.596 78.9901 12.8C78.9674 13.004 78.9448 13.2193 78.9221 13.446C78.8994 13.65 78.8768 13.9107 78.8541 14.228C78.8088 14.8853 78.7748 15.4067 78.7521 15.792C78.7521 16.1547 78.7634 16.3813 78.7861 16.472L79.6021 19.192C79.8061 19.2373 80.0781 19.294 80.4181 19.362C80.7808 19.4073 81.2114 19.4867 81.7101 19.6C82.6848 19.7813 83.1948 19.8153 83.2401 19.702C83.2174 19.5433 83.7614 19.328 84.8721 19.056C86.0054 18.8067 86.5721 18.6027 86.5721 18.444L87.2861 18.512L86.8441 20.348C86.7988 20.3707 86.7421 20.382 86.6741 20.382C86.6288 20.382 86.5834 20.3933 86.5381 20.416C86.4248 20.4387 86.3001 20.4613 86.1641 20.484C86.0508 20.5067 85.9034 20.5407 85.7221 20.586C85.3594 20.654 85.0761 20.7107 84.8721 20.756C84.6681 20.7787 84.5434 20.8013 84.4981 20.824C83.9541 20.892 83.5234 21.1527 83.2061 21.606C82.8208 22.0593 82.6168 22.2293 82.5941 22.116C82.3674 22.2067 82.1068 22.1727 81.8121 22.014C81.5854 21.81 81.1208 21.7873 80.4181 21.946L77.0181 21.538L73.7541 19.294C74.1168 19.022 73.9581 18.0587 73.2781 16.404C73.0968 15.9733 72.9381 15.5993 72.8021 15.282C72.6888 14.9647 72.5868 14.704 72.4961 14.5C72.4508 14.3867 72.4054 14.2847 72.3601 14.194C72.3374 14.0807 72.3034 13.9787 72.2581 13.888C72.2354 13.4347 72.2921 12.9247 72.4281 12.358C72.5868 11.7687 72.7001 11.2133 72.7681 10.692L73.3801 10.284C73.6974 10.08 73.9241 9.876 74.0601 9.672C74.1961 9.468 74.1281 9.20733 73.8561 8.89C73.9014 8.618 73.9354 8.32333 73.9581 8.006C74.0034 7.68866 74.0374 7.38266 74.0601 7.088C74.1054 6.79333 74.1394 6.544 74.1621 6.34C74.1848 6.136 74.1961 6.02267 74.1961 6L75.5221 4.096C75.5674 4.05066 75.7148 3.994 75.9641 3.926C76.2134 3.858 76.5421 3.76733 76.9501 3.654C77.1541 3.60866 77.3014 3.54066 77.3921 3.45C77.5054 3.33666 77.5848 3.23466 77.6301 3.144C77.6754 3.03066 77.7094 2.92866 77.7321 2.838C77.7774 2.74733 77.8228 2.69066 77.8681 2.668L82.4581 1.274C82.8434 1.206 83.2741 1.104 83.7501 0.967999C84.2261 0.831998 84.5888 0.67333 84.8381 0.491997L85.5861 0.457997ZM84.4641 13.888C84.4868 13.8653 84.4981 13.8427 84.4981 13.82V13.786C84.3394 13.5367 84.1921 13.3327 84.0561 13.174C83.9201 13.0153 83.8294 12.8907 83.7841 12.8L84.9741 11.474H85.9601C86.0054 11.474 86.1188 11.4853 86.3001 11.508C86.5041 11.508 86.7761 11.5193 87.1161 11.542C87.7734 11.5873 88.1361 11.474 88.2041 11.202H92.1481C92.5108 11.202 92.8848 11.236 93.2701 11.304C93.6554 11.372 93.9841 11.4287 94.2561 11.474C94.2561 11.6327 94.2221 11.882 94.1541 12.222C94.0861 12.5393 94.0408 12.8227 94.0181 13.072C93.8594 13.14 93.6214 13.208 93.3041 13.276C93.0094 13.344 92.8168 13.412 92.7261 13.48L91.2981 13.378L90.9921 14.16C91.1961 14.296 91.3888 14.364 91.5701 14.364C91.7514 14.3413 91.9894 14.3527 92.2841 14.398C92.3068 14.5793 92.2841 14.8627 92.2161 15.248C92.1481 15.6107 92.0574 16.0867 91.9441 16.676C91.8534 17.2653 91.7514 17.9567 91.6381 18.75C91.5474 19.5433 91.4908 20.45 91.4681 21.47L88.2721 22.048L88.0681 21.028C88.0908 20.9147 88.1021 20.6087 88.1021 20.11C88.1248 19.5887 88.1248 18.852 88.1021 17.9C88.0794 17.424 88.0681 16.982 88.0681 16.574C88.0681 16.166 88.0681 15.792 88.0681 15.452V13.854C87.5468 13.8993 87.0254 13.956 86.5041 14.024C86.0054 14.092 85.6541 14.16 85.4501 14.228L84.9061 14.262L84.4641 13.888Z" fill="#5AC893"/>
<path d="M109.945 7.02V8.584H109.061L107.769 9.604C106.658 9.76266 105.751 9.98933 105.049 10.284C104.346 10.556 104.017 10.9413 104.063 11.44C104.017 11.5533 103.995 11.6893 103.995 11.848C103.995 11.984 104.074 12.052 104.233 12.052L103.553 15.452L103.247 15.826V19.6L103.043 21.504L102.363 22.184L98.4867 21.912L97.6367 20.756L97.8747 20.144L97.7387 18.274L98.1467 14.84L98.4867 12.324C98.4867 12.256 98.498 12.1993 98.5207 12.154C98.5207 12.1087 98.5207 12.052 98.5207 11.984C98.5434 11.916 98.5547 11.8593 98.5547 11.814C98.668 11.7233 98.736 11.5193 98.7587 11.202C98.804 10.8847 98.8154 10.6807 98.7927 10.59C98.7927 10.4313 98.7814 10.284 98.7587 10.148C98.7587 10.012 98.7134 9.71733 98.6227 9.264C98.6 9.128 98.5207 8.96933 98.3847 8.788C98.2714 8.584 98.1467 8.40267 98.0107 8.244L98.4527 7.19H99.0987L102.601 6.544L103.451 6.952C103.383 7.33733 103.371 7.666 103.417 7.938C103.485 8.18733 103.575 8.38 103.689 8.516C103.825 8.652 103.972 8.74266 104.131 8.788C104.289 8.81066 104.425 8.788 104.539 8.72L105.151 8.38C105.264 8.33466 105.298 8.21 105.253 8.006C105.23 7.802 105.241 7.54133 105.287 7.224L109.503 6.476L109.945 7.02Z" fill="#5AC893"/>
<path d="M129.655 20.382L124.895 20.96L123.909 19.362C123.909 19.0673 123.683 19.0787 123.229 19.396C123.116 19.464 123.003 19.5773 122.889 19.736C122.776 19.8947 122.663 20.0533 122.549 20.212C122.481 20.3027 122.413 20.3933 122.345 20.484C122.277 20.5747 122.209 20.6767 122.141 20.79C121.439 21.3113 120.713 21.6513 119.965 21.81C119.24 21.9687 118.617 21.8667 118.095 21.504C117.71 21.4587 117.449 21.368 117.313 21.232C117.245 21.1867 117.155 21.1073 117.041 20.994L114.865 20.858L113.947 20.416L113.097 18.274L113.267 17.56L112.519 14.568L113.947 12.188L115.103 11.134C115.534 10.9073 116.033 10.726 116.599 10.59C117.166 10.454 117.733 10.3633 118.299 10.318C118.866 10.25 119.41 10.2387 119.931 10.284C120.453 10.3067 120.883 10.3747 121.223 10.488C121.223 10.8507 121.337 11.0887 121.563 11.202C121.79 11.3153 122.232 11.44 122.889 11.576C123.116 11.1907 123.229 10.726 123.229 10.182C123.229 9.61533 123.127 9.026 122.923 8.414L122.379 6.68C122.198 6.612 121.915 6.49866 121.529 6.34C121.167 6.15866 120.861 6.01133 120.611 5.898L119.149 6.136L117.653 6.442L117.313 5.898L117.687 5.014L117.925 4.47L118.401 4.368L119.965 4.096L121.359 4.572L122.889 4.334L125.847 5.218L127.105 7.122L127.547 12.528L127.445 14.228L128.193 18.206L128.635 18.41H129.689L130.131 19.6L129.655 20.382ZM117.177 14.84C117.064 15.4293 117.064 15.928 117.177 16.336C117.313 16.744 117.529 17.084 117.823 17.356L118.333 18.41C118.741 18.546 119.127 18.648 119.489 18.716C119.852 18.784 120.226 18.7953 120.611 18.75C121.019 18.682 121.439 18.5573 121.869 18.376C122.323 18.172 122.844 17.8773 123.433 17.492L123.501 15.758L122.889 12.732C122.572 12.6187 122.289 12.562 122.039 12.562C121.813 12.562 121.586 12.5847 121.359 12.63C121.087 12.698 120.77 12.7547 120.407 12.8C120.045 12.8453 119.671 12.902 119.285 12.97C118.923 13.0153 118.583 13.0833 118.265 13.174C117.971 13.242 117.755 13.344 117.619 13.48L117.177 14.84Z" fill="#5AC893"/>
<path d="M155.481 21.028L153.577 21.606L151.095 21.912L150.857 21.334L151.367 19.362L151.979 17.56L152.149 11.134L151.333 9.604H150.347L148.783 10.76H148.409C148.159 10.76 148.001 10.9073 147.933 11.202C147.887 11.474 147.887 11.7913 147.933 12.154C147.729 12.222 147.581 12.562 147.491 13.174L147.355 14.126L147.321 16.2L146.709 18.92L146.947 20.28L146.641 21.504L146.335 21.81L142.561 22.082L141.779 21.368L142.017 20.042L142.493 16.54C142.583 16.132 142.663 15.6673 142.731 15.146C142.821 14.6247 142.889 14.1033 142.935 13.582C142.98 13.038 143.003 12.528 143.003 12.052C143.025 11.5533 143.025 11.1453 143.003 10.828C142.957 10.5787 142.957 10.3747 143.003 10.216C143.048 10.0347 143.059 9.89867 143.037 9.808L142.391 9.196L140.283 9.536L139.603 8.958C139.059 8.64066 138.775 8.83333 138.753 9.536C138.617 9.74 138.492 9.91 138.379 10.046C138.288 10.1593 138.231 10.3407 138.209 10.59C138.095 10.6353 138.005 10.692 137.937 10.76C137.846 10.8507 137.755 10.9867 137.665 11.168C137.574 11.3493 137.506 11.61 137.461 11.95C137.37 12.6073 137.325 13.1627 137.325 13.616C137.325 14.0693 137.381 14.3867 137.495 14.568V15.18L136.917 16.54L136.747 18.954L136.441 21.3L136.169 21.606L132.055 21.946L131.375 21.334L131.579 20.042L131.783 18.274L131.919 15.69C131.919 15.2593 131.975 14.8513 132.089 14.466C132.202 14.0807 132.304 13.65 132.395 13.174L132.735 10.488C132.893 10.3293 133.063 10.046 133.245 9.638C133.449 9.23 133.551 8.83333 133.551 8.448C133.551 8.33466 133.528 8.25533 133.483 8.21C133.46 8.142 133.426 8.06266 133.381 7.972L133.891 7.292C133.936 7.292 134.038 7.30333 134.197 7.326C134.355 7.326 134.537 7.326 134.741 7.326C134.967 7.30333 135.194 7.292 135.421 7.292C135.647 7.26933 135.863 7.23533 136.067 7.19C136.883 7.07666 137.393 6.90666 137.597 6.68L138.889 6.612L138.753 7.904C138.957 8.108 139.172 8.23266 139.399 8.278C139.648 8.30067 139.897 8.26667 140.147 8.176C140.396 8.06266 140.634 7.904 140.861 7.7C141.087 7.47333 141.28 7.21267 141.439 6.918L143.377 6.952C143.626 6.92933 143.864 6.918 144.091 6.918C144.34 6.89533 144.578 6.884 144.805 6.884C145.167 6.884 145.507 6.918 145.825 6.986C146.142 7.03133 146.323 7.11066 146.369 7.224C146.459 7.632 146.652 7.79067 146.947 7.7C146.992 7.67733 147.071 7.75666 147.185 7.938C147.321 8.09666 147.525 8.19867 147.797 8.244C147.933 8.28933 148.023 8.36867 148.069 8.482C148.137 8.57267 148.182 8.67466 148.205 8.788C148.227 8.90133 148.25 9.00333 148.273 9.094C148.295 9.162 148.341 9.196 148.409 9.196L150.381 7.632L153.543 7.122L156.433 9.434L156.501 9.91C156.501 10.046 156.489 10.182 156.467 10.318C156.467 10.4313 156.433 10.522 156.365 10.59V13.65L156.399 16.914L155.787 20.688L155.481 21.028Z" fill="#5AC893"/>
</svg>
